<mxfile host="app.diagrams.net" agent="Mozilla/5.0 (Macintosh; Intel Mac OS X 10_15_7) AppleWebKit/537.36 (KHTML, like Gecko) Chrome/131.0.0.0 Safari/537.36 Edg/131.0.0.0" version="26.0.5">
  <diagram name="PÃ¡gina-1" id="bTw4JudQlxVkZ9lylxUB">
    <mxGraphModel dx="777" dy="575" grid="1" gridSize="10" guides="1" tooltips="1" connect="1" arrows="1" fold="1" page="1" pageScale="1" pageWidth="827" pageHeight="1169" math="0" shadow="0">
      <root>
        <mxCell id="0" />
        <mxCell id="1" parent="0" />
        <mxCell id="Q0DRoQQw0POhUQaQFCWc-2" value="Temporal Server" style="rounded=0;whiteSpace=wrap;html=1;fillColor=none;" vertex="1" parent="1">
          <mxGeometry x="320" y="200" width="120" height="60" as="geometry" />
        </mxCell>
        <mxCell id="Q0DRoQQw0POhUQaQFCWc-3" value="Temporal&lt;div&gt;pg&lt;/div&gt;" style="shape=cylinder3;whiteSpace=wrap;html=1;boundedLbl=1;backgroundOutline=1;size=15;" vertex="1" parent="1">
          <mxGeometry x="210" y="190" width="60" height="80" as="geometry" />
        </mxCell>
        <mxCell id="Q0DRoQQw0POhUQaQFCWc-5" style="edgeStyle=orthogonalEdgeStyle;rounded=0;orthogonalLoop=1;jettySize=auto;html=1;entryX=1;entryY=0.5;entryDx=0;entryDy=0;entryPerimeter=0;" edge="1" parent="1" source="Q0DRoQQw0POhUQaQFCWc-2" target="Q0DRoQQw0POhUQaQFCWc-3">
          <mxGeometry relative="1" as="geometry" />
        </mxCell>
        <mxCell id="Q0DRoQQw0POhUQaQFCWc-9" style="edgeStyle=orthogonalEdgeStyle;rounded=0;orthogonalLoop=1;jettySize=auto;html=1;entryX=0.5;entryY=1;entryDx=0;entryDy=0;" edge="1" parent="1" source="Q0DRoQQw0POhUQaQFCWc-6" target="Q0DRoQQw0POhUQaQFCWc-7">
          <mxGeometry relative="1" as="geometry" />
        </mxCell>
        <mxCell id="Q0DRoQQw0POhUQaQFCWc-6" value="Starter Job&lt;div&gt;(producer)&lt;/div&gt;" style="whiteSpace=wrap;html=1;fillColor=none;" vertex="1" parent="1">
          <mxGeometry x="320" y="460" width="120" height="60" as="geometry" />
        </mxCell>
        <mxCell id="Q0DRoQQw0POhUQaQFCWc-10" style="edgeStyle=orthogonalEdgeStyle;rounded=0;orthogonalLoop=1;jettySize=auto;html=1;entryX=0.5;entryY=1;entryDx=0;entryDy=0;" edge="1" parent="1" source="Q0DRoQQw0POhUQaQFCWc-7" target="Q0DRoQQw0POhUQaQFCWc-2">
          <mxGeometry relative="1" as="geometry" />
        </mxCell>
        <mxCell id="Q0DRoQQw0POhUQaQFCWc-7" value="Starter Worker (subscriber)" style="whiteSpace=wrap;html=1;" vertex="1" parent="1">
          <mxGeometry x="320" y="350" width="120" height="60" as="geometry" />
        </mxCell>
        <mxCell id="Q0DRoQQw0POhUQaQFCWc-11" value="&lt;font style=&quot;font-size: 9px; line-height: 100%;&quot;&gt;Sends message to queue &quot;sample-task-queue&quot;&lt;/font&gt;" style="text;html=1;align=center;verticalAlign=middle;resizable=0;points=[];autosize=1;strokeColor=none;fillColor=none;" vertex="1" parent="1">
          <mxGeometry x="380" y="418" width="210" height="30" as="geometry" />
        </mxCell>
        <mxCell id="Q0DRoQQw0POhUQaQFCWc-12" value="&lt;font style=&quot;font-size: 9px;&quot;&gt;Reports execution to temporal server (via GRPC)&lt;/font&gt;" style="text;html=1;align=center;verticalAlign=middle;resizable=0;points=[];autosize=1;strokeColor=none;fillColor=none;" vertex="1" parent="1">
          <mxGeometry x="375" y="288" width="220" height="30" as="geometry" />
        </mxCell>
        <mxCell id="Q0DRoQQw0POhUQaQFCWc-13" value="Temporal Web UI" style="whiteSpace=wrap;html=1;" vertex="1" parent="1">
          <mxGeometry x="180" y="70" width="120" height="60" as="geometry" />
        </mxCell>
        <mxCell id="Q0DRoQQw0POhUQaQFCWc-14" style="edgeStyle=orthogonalEdgeStyle;rounded=0;orthogonalLoop=1;jettySize=auto;html=1;entryX=0.5;entryY=0;entryDx=0;entryDy=0;entryPerimeter=0;" edge="1" parent="1" source="Q0DRoQQw0POhUQaQFCWc-13" target="Q0DRoQQw0POhUQaQFCWc-3">
          <mxGeometry relative="1" as="geometry" />
        </mxCell>
      </root>
    </mxGraphModel>
  </diagram>
</mxfile>
